<mxfile host="65bd71144e">
    <diagram id="msakjokLFXCM3EdJgNGU" name="Page-1">
        <mxGraphModel dx="1465" dy="336" grid="1" gridSize="10" guides="1" tooltips="1" connect="1" arrows="1" fold="1" page="1" pageScale="1" pageWidth="827" pageHeight="1169" math="0" shadow="0">
            <root>
                <mxCell id="0"/>
                <mxCell id="1" parent="0"/>
                <mxCell id="K-KlmSnST6W65XRva8_t-2" value="&lt;font style=&quot;font-size: 36px&quot;&gt;Modelagem_Conceitual&lt;/font&gt;" style="rounded=1;whiteSpace=wrap;html=1;" parent="1" vertex="1">
                    <mxGeometry x="-140" y="20" width="460" height="60" as="geometry"/>
                </mxCell>
                <mxCell id="K-KlmSnST6W65XRva8_t-4" value="Clinica" style="rounded=1;whiteSpace=wrap;html=1;" parent="1" vertex="1">
                    <mxGeometry x="-172.5" y="160" width="120" height="60" as="geometry"/>
                </mxCell>
                <mxCell id="K-KlmSnST6W65XRva8_t-5" value="Veterinario" style="rounded=1;whiteSpace=wrap;html=1;" parent="1" vertex="1">
                    <mxGeometry x="100" y="160" width="120" height="60" as="geometry"/>
                </mxCell>
                <mxCell id="K-KlmSnST6W65XRva8_t-6" value="tem" style="rhombus;whiteSpace=wrap;html=1;" parent="1" vertex="1">
                    <mxGeometry x="2.5" y="175" width="30" height="30" as="geometry"/>
                </mxCell>
                <mxCell id="K-KlmSnST6W65XRva8_t-7" value="" style="endArrow=none;html=1;entryX=0;entryY=0.5;entryDx=0;entryDy=0;exitX=1;exitY=0.5;exitDx=0;exitDy=0;" parent="1" source="K-KlmSnST6W65XRva8_t-4" target="K-KlmSnST6W65XRva8_t-6" edge="1">
                    <mxGeometry width="50" height="50" relative="1" as="geometry">
                        <mxPoint x="-170" y="290" as="sourcePoint"/>
                        <mxPoint x="-120" y="240" as="targetPoint"/>
                    </mxGeometry>
                </mxCell>
                <mxCell id="K-KlmSnST6W65XRva8_t-8" value="" style="endArrow=none;html=1;entryX=0;entryY=0.5;entryDx=0;entryDy=0;exitX=1;exitY=0.5;exitDx=0;exitDy=0;" parent="1" source="K-KlmSnST6W65XRva8_t-6" target="K-KlmSnST6W65XRva8_t-5" edge="1">
                    <mxGeometry width="50" height="50" relative="1" as="geometry">
                        <mxPoint x="-170" y="290" as="sourcePoint"/>
                        <mxPoint x="-120" y="240" as="targetPoint"/>
                    </mxGeometry>
                </mxCell>
                <mxCell id="K-KlmSnST6W65XRva8_t-9" value="N" style="text;html=1;strokeColor=none;fillColor=none;align=center;verticalAlign=middle;whiteSpace=wrap;rounded=0;" parent="1" vertex="1">
                    <mxGeometry x="46.5" y="165" width="40" height="20" as="geometry"/>
                </mxCell>
                <mxCell id="K-KlmSnST6W65XRva8_t-10" value="1" style="text;html=1;strokeColor=none;fillColor=none;align=center;verticalAlign=middle;whiteSpace=wrap;rounded=0;" parent="1" vertex="1">
                    <mxGeometry x="-45" y="165" width="40" height="20" as="geometry"/>
                </mxCell>
                <mxCell id="K-KlmSnST6W65XRva8_t-11" value="Pedido" style="rounded=1;whiteSpace=wrap;html=1;" parent="1" vertex="1">
                    <mxGeometry x="-170" y="350" width="120" height="60" as="geometry"/>
                </mxCell>
                <mxCell id="K-KlmSnST6W65XRva8_t-21" value="tem" style="rhombus;whiteSpace=wrap;html=1;" parent="1" vertex="1">
                    <mxGeometry x="145" y="365" width="30" height="30" as="geometry"/>
                </mxCell>
                <mxCell id="K-KlmSnST6W65XRva8_t-22" value="" style="endArrow=none;html=1;exitX=1;exitY=0.5;exitDx=0;exitDy=0;entryX=0;entryY=0.5;entryDx=0;entryDy=0;" parent="1" source="K-KlmSnST6W65XRva8_t-11" target="K-KlmSnST6W65XRva8_t-21" edge="1">
                    <mxGeometry width="50" height="50" relative="1" as="geometry">
                        <mxPoint x="-170" y="480" as="sourcePoint"/>
                        <mxPoint x="20" y="295" as="targetPoint"/>
                    </mxGeometry>
                </mxCell>
                <mxCell id="K-KlmSnST6W65XRva8_t-23" value="" style="endArrow=none;html=1;entryX=0.5;entryY=1;entryDx=0;entryDy=0;exitX=0.5;exitY=0;exitDx=0;exitDy=0;" parent="1" source="K-KlmSnST6W65XRva8_t-21" target="K-KlmSnST6W65XRva8_t-5" edge="1">
                    <mxGeometry width="50" height="50" relative="1" as="geometry">
                        <mxPoint x="50" y="295" as="sourcePoint"/>
                        <mxPoint x="-120" y="430" as="targetPoint"/>
                    </mxGeometry>
                </mxCell>
                <mxCell id="K-KlmSnST6W65XRva8_t-24" value="N" style="text;html=1;strokeColor=none;fillColor=none;align=center;verticalAlign=middle;whiteSpace=wrap;rounded=0;" parent="1" vertex="1">
                    <mxGeometry x="-37.5" y="345" width="40" height="20" as="geometry"/>
                </mxCell>
                <mxCell id="K-KlmSnST6W65XRva8_t-26" value="Pet" style="rounded=1;whiteSpace=wrap;html=1;" parent="1" vertex="1">
                    <mxGeometry x="-170" y="580" width="120" height="60" as="geometry"/>
                </mxCell>
                <mxCell id="K-KlmSnST6W65XRva8_t-27" value="tem" style="rhombus;whiteSpace=wrap;html=1;" parent="1" vertex="1">
                    <mxGeometry x="-125" y="480" width="30" height="30" as="geometry"/>
                </mxCell>
                <mxCell id="K-KlmSnST6W65XRva8_t-28" value="" style="endArrow=none;html=1;entryX=0.5;entryY=1;entryDx=0;entryDy=0;exitX=0.5;exitY=0;exitDx=0;exitDy=0;" parent="1" source="K-KlmSnST6W65XRva8_t-27" target="K-KlmSnST6W65XRva8_t-11" edge="1">
                    <mxGeometry width="50" height="50" relative="1" as="geometry">
                        <mxPoint x="-180" y="690" as="sourcePoint"/>
                        <mxPoint x="-130" y="640" as="targetPoint"/>
                    </mxGeometry>
                </mxCell>
                <mxCell id="K-KlmSnST6W65XRva8_t-29" value="" style="endArrow=none;html=1;entryX=0.5;entryY=1;entryDx=0;entryDy=0;exitX=0.5;exitY=0;exitDx=0;exitDy=0;" parent="1" source="K-KlmSnST6W65XRva8_t-26" target="K-KlmSnST6W65XRva8_t-27" edge="1">
                    <mxGeometry width="50" height="50" relative="1" as="geometry">
                        <mxPoint x="-180" y="690" as="sourcePoint"/>
                        <mxPoint x="-130" y="640" as="targetPoint"/>
                    </mxGeometry>
                </mxCell>
                <mxCell id="K-KlmSnST6W65XRva8_t-30" value="1" style="text;html=1;strokeColor=none;fillColor=none;align=center;verticalAlign=middle;whiteSpace=wrap;rounded=0;" parent="1" vertex="1">
                    <mxGeometry x="-160" y="420" width="40" height="20" as="geometry"/>
                </mxCell>
                <mxCell id="K-KlmSnST6W65XRva8_t-31" value="1" style="text;html=1;strokeColor=none;fillColor=none;align=center;verticalAlign=middle;whiteSpace=wrap;rounded=0;" parent="1" vertex="1">
                    <mxGeometry x="-160" y="550" width="40" height="20" as="geometry"/>
                </mxCell>
                <mxCell id="K-KlmSnST6W65XRva8_t-32" value="Cliente" style="rounded=1;whiteSpace=wrap;html=1;" parent="1" vertex="1">
                    <mxGeometry x="100" y="580" width="120" height="60" as="geometry"/>
                </mxCell>
                <mxCell id="K-KlmSnST6W65XRva8_t-33" value="tem" style="rhombus;whiteSpace=wrap;html=1;" parent="1" vertex="1">
                    <mxGeometry x="10" y="595" width="30" height="30" as="geometry"/>
                </mxCell>
                <mxCell id="K-KlmSnST6W65XRva8_t-34" value="" style="endArrow=none;html=1;entryX=0;entryY=0.5;entryDx=0;entryDy=0;exitX=1;exitY=0.5;exitDx=0;exitDy=0;" parent="1" source="K-KlmSnST6W65XRva8_t-26" target="K-KlmSnST6W65XRva8_t-33" edge="1">
                    <mxGeometry width="50" height="50" relative="1" as="geometry">
                        <mxPoint x="-170" y="710" as="sourcePoint"/>
                        <mxPoint x="-120" y="660" as="targetPoint"/>
                    </mxGeometry>
                </mxCell>
                <mxCell id="K-KlmSnST6W65XRva8_t-35" value="" style="endArrow=none;html=1;entryX=0;entryY=0.5;entryDx=0;entryDy=0;exitX=1;exitY=0.5;exitDx=0;exitDy=0;" parent="1" source="K-KlmSnST6W65XRva8_t-33" target="K-KlmSnST6W65XRva8_t-32" edge="1">
                    <mxGeometry width="50" height="50" relative="1" as="geometry">
                        <mxPoint x="-170" y="710" as="sourcePoint"/>
                        <mxPoint x="-120" y="660" as="targetPoint"/>
                    </mxGeometry>
                </mxCell>
                <mxCell id="K-KlmSnST6W65XRva8_t-40" value="N" style="text;html=1;strokeColor=none;fillColor=none;align=center;verticalAlign=middle;whiteSpace=wrap;rounded=0;" parent="1" vertex="1">
                    <mxGeometry x="-45" y="584" width="40" height="20" as="geometry"/>
                </mxCell>
                <mxCell id="K-KlmSnST6W65XRva8_t-41" value="1" style="text;html=1;strokeColor=none;fillColor=none;align=center;verticalAlign=middle;whiteSpace=wrap;rounded=0;" parent="1" vertex="1">
                    <mxGeometry x="55" y="585" width="40" height="20" as="geometry"/>
                </mxCell>
                <mxCell id="K-KlmSnST6W65XRva8_t-42" value="RaÃ§a" style="rounded=1;whiteSpace=wrap;html=1;" parent="1" vertex="1">
                    <mxGeometry x="-170" y="770" width="120" height="60" as="geometry"/>
                </mxCell>
                <mxCell id="K-KlmSnST6W65XRva8_t-43" value="tem" style="rhombus;whiteSpace=wrap;html=1;" parent="1" vertex="1">
                    <mxGeometry x="-125" y="690" width="30" height="30" as="geometry"/>
                </mxCell>
                <mxCell id="K-KlmSnST6W65XRva8_t-44" value="" style="endArrow=none;html=1;entryX=0.5;entryY=1;entryDx=0;entryDy=0;exitX=0.5;exitY=0;exitDx=0;exitDy=0;" parent="1" source="K-KlmSnST6W65XRva8_t-43" target="K-KlmSnST6W65XRva8_t-26" edge="1">
                    <mxGeometry width="50" height="50" relative="1" as="geometry">
                        <mxPoint x="-170" y="900" as="sourcePoint"/>
                        <mxPoint x="-120" y="850" as="targetPoint"/>
                    </mxGeometry>
                </mxCell>
                <mxCell id="K-KlmSnST6W65XRva8_t-45" value="" style="endArrow=none;html=1;entryX=0.5;entryY=1;entryDx=0;entryDy=0;exitX=0.5;exitY=0;exitDx=0;exitDy=0;" parent="1" source="K-KlmSnST6W65XRva8_t-42" target="K-KlmSnST6W65XRva8_t-43" edge="1">
                    <mxGeometry width="50" height="50" relative="1" as="geometry">
                        <mxPoint x="-170" y="900" as="sourcePoint"/>
                        <mxPoint x="-120" y="850" as="targetPoint"/>
                    </mxGeometry>
                </mxCell>
                <mxCell id="K-KlmSnST6W65XRva8_t-46" value="1" style="text;html=1;strokeColor=none;fillColor=none;align=center;verticalAlign=middle;whiteSpace=wrap;rounded=0;" parent="1" vertex="1">
                    <mxGeometry x="-105" y="740" width="40" height="20" as="geometry"/>
                </mxCell>
                <mxCell id="K-KlmSnST6W65XRva8_t-47" value="N" style="text;html=1;strokeColor=none;fillColor=none;align=center;verticalAlign=middle;whiteSpace=wrap;rounded=0;" parent="1" vertex="1">
                    <mxGeometry x="-105" y="650" width="40" height="20" as="geometry"/>
                </mxCell>
                <mxCell id="K-KlmSnST6W65XRva8_t-48" value="TipoPet" style="rounded=1;whiteSpace=wrap;html=1;" parent="1" vertex="1">
                    <mxGeometry x="80" y="770" width="120" height="60" as="geometry"/>
                </mxCell>
                <mxCell id="K-KlmSnST6W65XRva8_t-49" value="tem" style="rhombus;whiteSpace=wrap;html=1;" parent="1" vertex="1">
                    <mxGeometry x="-5" y="785" width="30" height="30" as="geometry"/>
                </mxCell>
                <mxCell id="K-KlmSnST6W65XRva8_t-50" value="" style="endArrow=none;html=1;entryX=0;entryY=0.5;entryDx=0;entryDy=0;exitX=1;exitY=0.5;exitDx=0;exitDy=0;" parent="1" source="K-KlmSnST6W65XRva8_t-42" target="K-KlmSnST6W65XRva8_t-49" edge="1">
                    <mxGeometry width="50" height="50" relative="1" as="geometry">
                        <mxPoint x="-170" y="900" as="sourcePoint"/>
                        <mxPoint x="-120" y="850" as="targetPoint"/>
                    </mxGeometry>
                </mxCell>
                <mxCell id="K-KlmSnST6W65XRva8_t-51" value="" style="endArrow=none;html=1;entryX=0;entryY=0.5;entryDx=0;entryDy=0;exitX=1;exitY=0.5;exitDx=0;exitDy=0;" parent="1" source="K-KlmSnST6W65XRva8_t-49" target="K-KlmSnST6W65XRva8_t-48" edge="1">
                    <mxGeometry width="50" height="50" relative="1" as="geometry">
                        <mxPoint x="-170" y="900" as="sourcePoint"/>
                        <mxPoint x="-120" y="850" as="targetPoint"/>
                    </mxGeometry>
                </mxCell>
                <mxCell id="K-KlmSnST6W65XRva8_t-52" value="N" style="text;html=1;strokeColor=none;fillColor=none;align=center;verticalAlign=middle;whiteSpace=wrap;rounded=0;" parent="1" vertex="1">
                    <mxGeometry x="-40" y="775" width="40" height="20" as="geometry"/>
                </mxCell>
                <mxCell id="K-KlmSnST6W65XRva8_t-53" value="1" style="text;html=1;strokeColor=none;fillColor=none;align=center;verticalAlign=middle;whiteSpace=wrap;rounded=0;" parent="1" vertex="1">
                    <mxGeometry x="32.5" y="775" width="40" height="20" as="geometry"/>
                </mxCell>
                <mxCell id="Dj067mYH_iYzO1JMoP-B-2" value="1" style="text;html=1;strokeColor=none;fillColor=none;align=center;verticalAlign=middle;whiteSpace=wrap;rounded=0;" parent="1" vertex="1">
                    <mxGeometry x="110" y="230" width="40" height="20" as="geometry"/>
                </mxCell>
            </root>
        </mxGraphModel>
    </diagram>
    <diagram id="LY_jpZV77pRwkITL4rpn" name="Page-2">
        <mxGraphModel dx="1465" dy="336" grid="1" gridSize="10" guides="1" tooltips="1" connect="1" arrows="1" fold="1" page="1" pageScale="1" pageWidth="827" pageHeight="1169" math="0" shadow="0">
            <root>
                <mxCell id="iKxvsS5sN6qhoklYNSQN-0"/>
                <mxCell id="iKxvsS5sN6qhoklYNSQN-1" parent="iKxvsS5sN6qhoklYNSQN-0"/>
                <mxCell id="iKxvsS5sN6qhoklYNSQN-2" value="&lt;font style=&quot;font-size: 36px&quot;&gt;Modelagem_LÃ³gico&lt;/font&gt;" style="rounded=1;whiteSpace=wrap;html=1;" parent="iKxvsS5sN6qhoklYNSQN-1" vertex="1">
                    <mxGeometry x="-47" y="20" width="460" height="60" as="geometry"/>
                </mxCell>
                <mxCell id="iKxvsS5sN6qhoklYNSQN-3" value="Clinica" style="swimlane;fontStyle=0;childLayout=stackLayout;horizontal=1;startSize=26;fillColor=#e0e0e0;horizontalStack=0;resizeParent=1;resizeParentMax=0;resizeLast=0;collapsible=1;marginBottom=0;swimlaneFillColor=#ffffff;align=center;fontSize=14;" parent="iKxvsS5sN6qhoklYNSQN-1" vertex="1">
                    <mxGeometry x="195" y="120.5" width="160" height="118" as="geometry"/>
                </mxCell>
                <mxCell id="iKxvsS5sN6qhoklYNSQN-4" value="idClinica : int" style="shape=partialRectangle;top=0;left=0;right=0;bottom=1;align=left;verticalAlign=middle;fillColor=none;spacingLeft=34;spacingRight=4;overflow=hidden;rotatable=0;points=[[0,0.5],[1,0.5]];portConstraint=eastwest;dropTarget=0;fontStyle=5;fontSize=12;" parent="iKxvsS5sN6qhoklYNSQN-3" vertex="1">
                    <mxGeometry y="26" width="160" height="30" as="geometry"/>
                </mxCell>
                <mxCell id="iKxvsS5sN6qhoklYNSQN-5" value="PK" style="shape=partialRectangle;top=0;left=0;bottom=0;fillColor=none;align=left;verticalAlign=middle;spacingLeft=4;spacingRight=4;overflow=hidden;rotatable=0;points=[];portConstraint=eastwest;part=1;fontSize=12;" parent="iKxvsS5sN6qhoklYNSQN-4" vertex="1" connectable="0">
                    <mxGeometry width="30" height="30" as="geometry"/>
                </mxCell>
                <mxCell id="iKxvsS5sN6qhoklYNSQN-6" value="EndereÃ§o : str" style="shape=partialRectangle;top=0;left=0;right=0;bottom=0;align=left;verticalAlign=top;fillColor=none;spacingLeft=34;spacingRight=4;overflow=hidden;rotatable=0;points=[[0,0.5],[1,0.5]];portConstraint=eastwest;dropTarget=0;fontSize=12;" parent="iKxvsS5sN6qhoklYNSQN-3" vertex="1">
                    <mxGeometry y="56" width="160" height="26" as="geometry"/>
                </mxCell>
                <mxCell id="iKxvsS5sN6qhoklYNSQN-7" value="" style="shape=partialRectangle;top=0;left=0;bottom=0;fillColor=none;align=left;verticalAlign=top;spacingLeft=4;spacingRight=4;overflow=hidden;rotatable=0;points=[];portConstraint=eastwest;part=1;fontSize=12;" parent="iKxvsS5sN6qhoklYNSQN-6" vertex="1" connectable="0">
                    <mxGeometry width="30" height="26" as="geometry"/>
                </mxCell>
                <mxCell id="iKxvsS5sN6qhoklYNSQN-8" value="nome : str" style="shape=partialRectangle;top=0;left=0;right=0;bottom=0;align=left;verticalAlign=top;fillColor=none;spacingLeft=34;spacingRight=4;overflow=hidden;rotatable=0;points=[[0,0.5],[1,0.5]];portConstraint=eastwest;dropTarget=0;fontSize=12;" parent="iKxvsS5sN6qhoklYNSQN-3" vertex="1">
                    <mxGeometry y="82" width="160" height="26" as="geometry"/>
                </mxCell>
                <mxCell id="iKxvsS5sN6qhoklYNSQN-9" value="" style="shape=partialRectangle;top=0;left=0;bottom=0;fillColor=none;align=left;verticalAlign=top;spacingLeft=4;spacingRight=4;overflow=hidden;rotatable=0;points=[];portConstraint=eastwest;part=1;fontSize=12;" parent="iKxvsS5sN6qhoklYNSQN-8" vertex="1" connectable="0">
                    <mxGeometry width="30" height="26" as="geometry"/>
                </mxCell>
                <mxCell id="iKxvsS5sN6qhoklYNSQN-12" value="" style="shape=partialRectangle;top=0;left=0;right=0;bottom=0;align=left;verticalAlign=top;fillColor=none;spacingLeft=34;spacingRight=4;overflow=hidden;rotatable=0;points=[[0,0.5],[1,0.5]];portConstraint=eastwest;dropTarget=0;fontSize=12;" parent="iKxvsS5sN6qhoklYNSQN-3" vertex="1">
                    <mxGeometry y="108" width="160" height="10" as="geometry"/>
                </mxCell>
                <mxCell id="iKxvsS5sN6qhoklYNSQN-13" value="" style="shape=partialRectangle;top=0;left=0;bottom=0;fillColor=none;align=left;verticalAlign=top;spacingLeft=4;spacingRight=4;overflow=hidden;rotatable=0;points=[];portConstraint=eastwest;part=1;fontSize=12;" parent="iKxvsS5sN6qhoklYNSQN-12" vertex="1" connectable="0">
                    <mxGeometry width="30" height="10" as="geometry"/>
                </mxCell>
                <mxCell id="iKxvsS5sN6qhoklYNSQN-14" value="Pet" style="swimlane;fontStyle=0;childLayout=stackLayout;horizontal=1;startSize=26;fillColor=#e0e0e0;horizontalStack=0;resizeParent=1;resizeParentMax=0;resizeLast=0;collapsible=1;marginBottom=0;swimlaneFillColor=#ffffff;align=center;fontSize=14;" parent="iKxvsS5sN6qhoklYNSQN-1" vertex="1">
                    <mxGeometry x="300" y="306.5" width="160" height="160" as="geometry"/>
                </mxCell>
                <mxCell id="iKxvsS5sN6qhoklYNSQN-15" value="idPet : int" style="shape=partialRectangle;top=0;left=0;right=0;bottom=1;align=left;verticalAlign=middle;fillColor=none;spacingLeft=34;spacingRight=4;overflow=hidden;rotatable=0;points=[[0,0.5],[1,0.5]];portConstraint=eastwest;dropTarget=0;fontStyle=5;fontSize=12;" parent="iKxvsS5sN6qhoklYNSQN-14" vertex="1">
                    <mxGeometry y="26" width="160" height="30" as="geometry"/>
                </mxCell>
                <mxCell id="iKxvsS5sN6qhoklYNSQN-16" value="PK" style="shape=partialRectangle;top=0;left=0;bottom=0;fillColor=none;align=left;verticalAlign=middle;spacingLeft=4;spacingRight=4;overflow=hidden;rotatable=0;points=[];portConstraint=eastwest;part=1;fontSize=12;" parent="iKxvsS5sN6qhoklYNSQN-15" vertex="1" connectable="0">
                    <mxGeometry width="30" height="30" as="geometry"/>
                </mxCell>
                <mxCell id="iKxvsS5sN6qhoklYNSQN-17" value="idRaÃ§a : int" style="shape=partialRectangle;top=0;left=0;right=0;bottom=0;align=left;verticalAlign=top;fillColor=none;spacingLeft=34;spacingRight=4;overflow=hidden;rotatable=0;points=[[0,0.5],[1,0.5]];portConstraint=eastwest;dropTarget=0;fontSize=12;" parent="iKxvsS5sN6qhoklYNSQN-14" vertex="1">
                    <mxGeometry y="56" width="160" height="26" as="geometry"/>
                </mxCell>
                <mxCell id="iKxvsS5sN6qhoklYNSQN-18" value="FK" style="shape=partialRectangle;top=0;left=0;bottom=0;fillColor=none;align=left;verticalAlign=top;spacingLeft=4;spacingRight=4;overflow=hidden;rotatable=0;points=[];portConstraint=eastwest;part=1;fontSize=12;" parent="iKxvsS5sN6qhoklYNSQN-17" vertex="1" connectable="0">
                    <mxGeometry width="30" height="26" as="geometry"/>
                </mxCell>
                <mxCell id="iKxvsS5sN6qhoklYNSQN-19" value="idCliente : int" style="shape=partialRectangle;top=0;left=0;right=0;bottom=0;align=left;verticalAlign=top;fillColor=none;spacingLeft=34;spacingRight=4;overflow=hidden;rotatable=0;points=[[0,0.5],[1,0.5]];portConstraint=eastwest;dropTarget=0;fontSize=12;" parent="iKxvsS5sN6qhoklYNSQN-14" vertex="1">
                    <mxGeometry y="82" width="160" height="26" as="geometry"/>
                </mxCell>
                <mxCell id="iKxvsS5sN6qhoklYNSQN-20" value="FK" style="shape=partialRectangle;top=0;left=0;bottom=0;fillColor=none;align=left;verticalAlign=top;spacingLeft=4;spacingRight=4;overflow=hidden;rotatable=0;points=[];portConstraint=eastwest;part=1;fontSize=12;" parent="iKxvsS5sN6qhoklYNSQN-19" vertex="1" connectable="0">
                    <mxGeometry width="30" height="26" as="geometry"/>
                </mxCell>
                <mxCell id="iKxvsS5sN6qhoklYNSQN-21" value="nome : str" style="shape=partialRectangle;top=0;left=0;right=0;bottom=0;align=left;verticalAlign=top;fillColor=none;spacingLeft=34;spacingRight=4;overflow=hidden;rotatable=0;points=[[0,0.5],[1,0.5]];portConstraint=eastwest;dropTarget=0;fontSize=12;" parent="iKxvsS5sN6qhoklYNSQN-14" vertex="1">
                    <mxGeometry y="108" width="160" height="26" as="geometry"/>
                </mxCell>
                <mxCell id="iKxvsS5sN6qhoklYNSQN-22" value="" style="shape=partialRectangle;top=0;left=0;bottom=0;fillColor=none;align=left;verticalAlign=top;spacingLeft=4;spacingRight=4;overflow=hidden;rotatable=0;points=[];portConstraint=eastwest;part=1;fontSize=12;" parent="iKxvsS5sN6qhoklYNSQN-21" vertex="1" connectable="0">
                    <mxGeometry width="30" height="26" as="geometry"/>
                </mxCell>
                <mxCell id="iKxvsS5sN6qhoklYNSQN-25" value="dataNascimento : date" style="shape=partialRectangle;top=0;left=0;right=0;bottom=0;align=left;verticalAlign=top;fillColor=none;spacingLeft=34;spacingRight=4;overflow=hidden;rotatable=0;points=[[0,0.5],[1,0.5]];portConstraint=eastwest;dropTarget=0;fontSize=12;" parent="iKxvsS5sN6qhoklYNSQN-14" vertex="1">
                    <mxGeometry y="134" width="160" height="26" as="geometry"/>
                </mxCell>
                <mxCell id="iKxvsS5sN6qhoklYNSQN-26" value="" style="shape=partialRectangle;top=0;left=0;bottom=0;fillColor=none;align=left;verticalAlign=top;spacingLeft=4;spacingRight=4;overflow=hidden;rotatable=0;points=[];portConstraint=eastwest;part=1;fontSize=12;" parent="iKxvsS5sN6qhoklYNSQN-25" vertex="1" connectable="0">
                    <mxGeometry width="30" height="26" as="geometry"/>
                </mxCell>
                <mxCell id="iKxvsS5sN6qhoklYNSQN-42" value="tipoPet" style="swimlane;fontStyle=0;childLayout=stackLayout;horizontal=1;startSize=26;fillColor=#e0e0e0;horizontalStack=0;resizeParent=1;resizeParentMax=0;resizeLast=0;collapsible=1;marginBottom=0;swimlaneFillColor=#ffffff;align=center;fontSize=14;" parent="iKxvsS5sN6qhoklYNSQN-1" vertex="1">
                    <mxGeometry x="-95" y="374" width="160" height="92" as="geometry"/>
                </mxCell>
                <mxCell id="iKxvsS5sN6qhoklYNSQN-43" value="idTipoPet : int" style="shape=partialRectangle;top=0;left=0;right=0;bottom=1;align=left;verticalAlign=middle;fillColor=none;spacingLeft=34;spacingRight=4;overflow=hidden;rotatable=0;points=[[0,0.5],[1,0.5]];portConstraint=eastwest;dropTarget=0;fontStyle=5;fontSize=12;" parent="iKxvsS5sN6qhoklYNSQN-42" vertex="1">
                    <mxGeometry y="26" width="160" height="30" as="geometry"/>
                </mxCell>
                <mxCell id="iKxvsS5sN6qhoklYNSQN-44" value="PK" style="shape=partialRectangle;top=0;left=0;bottom=0;fillColor=none;align=left;verticalAlign=middle;spacingLeft=4;spacingRight=4;overflow=hidden;rotatable=0;points=[];portConstraint=eastwest;part=1;fontSize=12;" parent="iKxvsS5sN6qhoklYNSQN-43" vertex="1" connectable="0">
                    <mxGeometry width="30" height="30" as="geometry"/>
                </mxCell>
                <mxCell id="iKxvsS5sN6qhoklYNSQN-45" value="tipoPet : str" style="shape=partialRectangle;top=0;left=0;right=0;bottom=0;align=left;verticalAlign=top;fillColor=none;spacingLeft=34;spacingRight=4;overflow=hidden;rotatable=0;points=[[0,0.5],[1,0.5]];portConstraint=eastwest;dropTarget=0;fontSize=12;" parent="iKxvsS5sN6qhoklYNSQN-42" vertex="1">
                    <mxGeometry y="56" width="160" height="26" as="geometry"/>
                </mxCell>
                <mxCell id="iKxvsS5sN6qhoklYNSQN-46" value="" style="shape=partialRectangle;top=0;left=0;bottom=0;fillColor=none;align=left;verticalAlign=top;spacingLeft=4;spacingRight=4;overflow=hidden;rotatable=0;points=[];portConstraint=eastwest;part=1;fontSize=12;" parent="iKxvsS5sN6qhoklYNSQN-45" vertex="1" connectable="0">
                    <mxGeometry width="30" height="26" as="geometry"/>
                </mxCell>
                <mxCell id="iKxvsS5sN6qhoklYNSQN-51" value="" style="shape=partialRectangle;top=0;left=0;right=0;bottom=0;align=left;verticalAlign=top;fillColor=none;spacingLeft=34;spacingRight=4;overflow=hidden;rotatable=0;points=[[0,0.5],[1,0.5]];portConstraint=eastwest;dropTarget=0;fontSize=12;" parent="iKxvsS5sN6qhoklYNSQN-42" vertex="1">
                    <mxGeometry y="82" width="160" height="10" as="geometry"/>
                </mxCell>
                <mxCell id="iKxvsS5sN6qhoklYNSQN-52" value="" style="shape=partialRectangle;top=0;left=0;bottom=0;fillColor=none;align=left;verticalAlign=top;spacingLeft=4;spacingRight=4;overflow=hidden;rotatable=0;points=[];portConstraint=eastwest;part=1;fontSize=12;" parent="iKxvsS5sN6qhoklYNSQN-51" vertex="1" connectable="0">
                    <mxGeometry width="30" height="10" as="geometry"/>
                </mxCell>
                <mxCell id="G1aSbSWMhD-4onddrqt2-0" value="RaÃ§a" style="swimlane;fontStyle=0;childLayout=stackLayout;horizontal=1;startSize=26;fillColor=#e0e0e0;horizontalStack=0;resizeParent=1;resizeParentMax=0;resizeLast=0;collapsible=1;marginBottom=0;swimlaneFillColor=#ffffff;align=center;fontSize=14;" parent="iKxvsS5sN6qhoklYNSQN-1" vertex="1">
                    <mxGeometry x="-47" y="117.5" width="160" height="118" as="geometry"/>
                </mxCell>
                <mxCell id="G1aSbSWMhD-4onddrqt2-1" value="idRaÃ§a : int" style="shape=partialRectangle;top=0;left=0;right=0;bottom=1;align=left;verticalAlign=middle;fillColor=none;spacingLeft=34;spacingRight=4;overflow=hidden;rotatable=0;points=[[0,0.5],[1,0.5]];portConstraint=eastwest;dropTarget=0;fontStyle=5;fontSize=12;" parent="G1aSbSWMhD-4onddrqt2-0" vertex="1">
                    <mxGeometry y="26" width="160" height="30" as="geometry"/>
                </mxCell>
                <mxCell id="G1aSbSWMhD-4onddrqt2-2" value="PK" style="shape=partialRectangle;top=0;left=0;bottom=0;fillColor=none;align=left;verticalAlign=middle;spacingLeft=4;spacingRight=4;overflow=hidden;rotatable=0;points=[];portConstraint=eastwest;part=1;fontSize=12;" parent="G1aSbSWMhD-4onddrqt2-1" vertex="1" connectable="0">
                    <mxGeometry width="30" height="30" as="geometry"/>
                </mxCell>
                <mxCell id="G1aSbSWMhD-4onddrqt2-3" value="nome : str" style="shape=partialRectangle;top=0;left=0;right=0;bottom=0;align=left;verticalAlign=top;fillColor=none;spacingLeft=34;spacingRight=4;overflow=hidden;rotatable=0;points=[[0,0.5],[1,0.5]];portConstraint=eastwest;dropTarget=0;fontSize=12;" parent="G1aSbSWMhD-4onddrqt2-0" vertex="1">
                    <mxGeometry y="56" width="160" height="26" as="geometry"/>
                </mxCell>
                <mxCell id="G1aSbSWMhD-4onddrqt2-4" value="" style="shape=partialRectangle;top=0;left=0;bottom=0;fillColor=none;align=left;verticalAlign=top;spacingLeft=4;spacingRight=4;overflow=hidden;rotatable=0;points=[];portConstraint=eastwest;part=1;fontSize=12;" parent="G1aSbSWMhD-4onddrqt2-3" vertex="1" connectable="0">
                    <mxGeometry width="30" height="26" as="geometry"/>
                </mxCell>
                <mxCell id="G1aSbSWMhD-4onddrqt2-5" value="IdTipoPet : int" style="shape=partialRectangle;top=0;left=0;right=0;bottom=0;align=left;verticalAlign=top;fillColor=none;spacingLeft=34;spacingRight=4;overflow=hidden;rotatable=0;points=[[0,0.5],[1,0.5]];portConstraint=eastwest;dropTarget=0;fontSize=12;" parent="G1aSbSWMhD-4onddrqt2-0" vertex="1">
                    <mxGeometry y="82" width="160" height="26" as="geometry"/>
                </mxCell>
                <mxCell id="G1aSbSWMhD-4onddrqt2-6" value="FK" style="shape=partialRectangle;top=0;left=0;bottom=0;fillColor=none;align=left;verticalAlign=top;spacingLeft=4;spacingRight=4;overflow=hidden;rotatable=0;points=[];portConstraint=eastwest;part=1;fontSize=12;" parent="G1aSbSWMhD-4onddrqt2-5" vertex="1" connectable="0">
                    <mxGeometry width="30" height="26" as="geometry"/>
                </mxCell>
                <mxCell id="G1aSbSWMhD-4onddrqt2-9" value="" style="shape=partialRectangle;top=0;left=0;right=0;bottom=0;align=left;verticalAlign=top;fillColor=none;spacingLeft=34;spacingRight=4;overflow=hidden;rotatable=0;points=[[0,0.5],[1,0.5]];portConstraint=eastwest;dropTarget=0;fontSize=12;" parent="G1aSbSWMhD-4onddrqt2-0" vertex="1">
                    <mxGeometry y="108" width="160" height="10" as="geometry"/>
                </mxCell>
                <mxCell id="G1aSbSWMhD-4onddrqt2-10" value="" style="shape=partialRectangle;top=0;left=0;bottom=0;fillColor=none;align=left;verticalAlign=top;spacingLeft=4;spacingRight=4;overflow=hidden;rotatable=0;points=[];portConstraint=eastwest;part=1;fontSize=12;" parent="G1aSbSWMhD-4onddrqt2-9" vertex="1" connectable="0">
                    <mxGeometry width="30" height="10" as="geometry"/>
                </mxCell>
                <mxCell id="anx6Ybvmob8gsgEajle1-0" value="" style="edgeStyle=entityRelationEdgeStyle;fontSize=12;html=1;endArrow=ERoneToMany;entryX=0;entryY=0.5;entryDx=0;entryDy=0;exitX=1.019;exitY=0.733;exitDx=0;exitDy=0;exitPerimeter=0;" parent="iKxvsS5sN6qhoklYNSQN-1" source="iKxvsS5sN6qhoklYNSQN-43" target="G1aSbSWMhD-4onddrqt2-5" edge="1">
                    <mxGeometry width="100" height="100" relative="1" as="geometry">
                        <mxPoint x="70" y="410" as="sourcePoint"/>
                        <mxPoint x="-60" y="570" as="targetPoint"/>
                    </mxGeometry>
                </mxCell>
                <mxCell id="eOd7KjFFPFlKLtjEiDD--0" value="" style="edgeStyle=entityRelationEdgeStyle;fontSize=12;html=1;endArrow=ERoneToMany;entryX=0;entryY=0.5;entryDx=0;entryDy=0;exitX=1;exitY=0.5;exitDx=0;exitDy=0;" parent="iKxvsS5sN6qhoklYNSQN-1" source="G1aSbSWMhD-4onddrqt2-1" target="iKxvsS5sN6qhoklYNSQN-17" edge="1">
                    <mxGeometry width="100" height="100" relative="1" as="geometry">
                        <mxPoint x="-50" y="640" as="sourcePoint"/>
                        <mxPoint x="50" y="540" as="targetPoint"/>
                    </mxGeometry>
                </mxCell>
                <mxCell id="ko7Lu__XpXwXb14svriU-0" value="Cliente" style="swimlane;fontStyle=0;childLayout=stackLayout;horizontal=1;startSize=26;fillColor=#e0e0e0;horizontalStack=0;resizeParent=1;resizeParentMax=0;resizeLast=0;collapsible=1;marginBottom=0;swimlaneFillColor=#ffffff;align=center;fontSize=14;" parent="iKxvsS5sN6qhoklYNSQN-1" vertex="1">
                    <mxGeometry x="50" y="519" width="160" height="92" as="geometry"/>
                </mxCell>
                <mxCell id="ko7Lu__XpXwXb14svriU-1" value="idCliente : int" style="shape=partialRectangle;top=0;left=0;right=0;bottom=1;align=left;verticalAlign=middle;fillColor=none;spacingLeft=34;spacingRight=4;overflow=hidden;rotatable=0;points=[[0,0.5],[1,0.5]];portConstraint=eastwest;dropTarget=0;fontStyle=5;fontSize=12;" parent="ko7Lu__XpXwXb14svriU-0" vertex="1">
                    <mxGeometry y="26" width="160" height="30" as="geometry"/>
                </mxCell>
                <mxCell id="ko7Lu__XpXwXb14svriU-2" value="PK" style="shape=partialRectangle;top=0;left=0;bottom=0;fillColor=none;align=left;verticalAlign=middle;spacingLeft=4;spacingRight=4;overflow=hidden;rotatable=0;points=[];portConstraint=eastwest;part=1;fontSize=12;" parent="ko7Lu__XpXwXb14svriU-1" vertex="1" connectable="0">
                    <mxGeometry width="30" height="30" as="geometry"/>
                </mxCell>
                <mxCell id="ko7Lu__XpXwXb14svriU-3" value="nome : str" style="shape=partialRectangle;top=0;left=0;right=0;bottom=0;align=left;verticalAlign=top;fillColor=none;spacingLeft=34;spacingRight=4;overflow=hidden;rotatable=0;points=[[0,0.5],[1,0.5]];portConstraint=eastwest;dropTarget=0;fontSize=12;" parent="ko7Lu__XpXwXb14svriU-0" vertex="1">
                    <mxGeometry y="56" width="160" height="26" as="geometry"/>
                </mxCell>
                <mxCell id="ko7Lu__XpXwXb14svriU-4" value="" style="shape=partialRectangle;top=0;left=0;bottom=0;fillColor=none;align=left;verticalAlign=top;spacingLeft=4;spacingRight=4;overflow=hidden;rotatable=0;points=[];portConstraint=eastwest;part=1;fontSize=12;" parent="ko7Lu__XpXwXb14svriU-3" vertex="1" connectable="0">
                    <mxGeometry width="30" height="26" as="geometry"/>
                </mxCell>
                <mxCell id="ko7Lu__XpXwXb14svriU-9" value="" style="shape=partialRectangle;top=0;left=0;right=0;bottom=0;align=left;verticalAlign=top;fillColor=none;spacingLeft=34;spacingRight=4;overflow=hidden;rotatable=0;points=[[0,0.5],[1,0.5]];portConstraint=eastwest;dropTarget=0;fontSize=12;" parent="ko7Lu__XpXwXb14svriU-0" vertex="1">
                    <mxGeometry y="82" width="160" height="10" as="geometry"/>
                </mxCell>
                <mxCell id="ko7Lu__XpXwXb14svriU-10" value="" style="shape=partialRectangle;top=0;left=0;bottom=0;fillColor=none;align=left;verticalAlign=top;spacingLeft=4;spacingRight=4;overflow=hidden;rotatable=0;points=[];portConstraint=eastwest;part=1;fontSize=12;" parent="ko7Lu__XpXwXb14svriU-9" vertex="1" connectable="0">
                    <mxGeometry width="30" height="10" as="geometry"/>
                </mxCell>
                <mxCell id="OaZPITAqJCspsxSk9iSa-0" value="Pedido" style="swimlane;fontStyle=0;childLayout=stackLayout;horizontal=1;startSize=26;fillColor=#e0e0e0;horizontalStack=0;resizeParent=1;resizeParentMax=0;resizeLast=0;collapsible=1;marginBottom=0;swimlaneFillColor=#ffffff;align=center;fontSize=14;" parent="iKxvsS5sN6qhoklYNSQN-1" vertex="1">
                    <mxGeometry x="610" y="278.5" width="160" height="108" as="geometry"/>
                </mxCell>
                <mxCell id="OaZPITAqJCspsxSk9iSa-1" value="idPedido : int" style="shape=partialRectangle;top=0;left=0;right=0;bottom=1;align=left;verticalAlign=middle;fillColor=none;spacingLeft=34;spacingRight=4;overflow=hidden;rotatable=0;points=[[0,0.5],[1,0.5]];portConstraint=eastwest;dropTarget=0;fontStyle=5;fontSize=12;" parent="OaZPITAqJCspsxSk9iSa-0" vertex="1">
                    <mxGeometry y="26" width="160" height="30" as="geometry"/>
                </mxCell>
                <mxCell id="OaZPITAqJCspsxSk9iSa-2" value="PK" style="shape=partialRectangle;top=0;left=0;bottom=0;fillColor=none;align=left;verticalAlign=middle;spacingLeft=4;spacingRight=4;overflow=hidden;rotatable=0;points=[];portConstraint=eastwest;part=1;fontSize=12;" parent="OaZPITAqJCspsxSk9iSa-1" vertex="1" connectable="0">
                    <mxGeometry width="30" height="30" as="geometry"/>
                </mxCell>
                <mxCell id="5YISY8baD741QjHtO7cg-2" value="idVeterinarioÂ  : int" style="shape=partialRectangle;top=0;left=0;right=0;bottom=0;align=left;verticalAlign=top;fillColor=none;spacingLeft=34;spacingRight=4;overflow=hidden;rotatable=0;points=[[0,0.5],[1,0.5]];portConstraint=eastwest;dropTarget=0;fontSize=12;" parent="OaZPITAqJCspsxSk9iSa-0" vertex="1">
                    <mxGeometry y="56" width="160" height="26" as="geometry"/>
                </mxCell>
                <mxCell id="5YISY8baD741QjHtO7cg-3" value="FK" style="shape=partialRectangle;top=0;left=0;bottom=0;fillColor=none;align=left;verticalAlign=top;spacingLeft=4;spacingRight=4;overflow=hidden;rotatable=0;points=[];portConstraint=eastwest;part=1;fontSize=12;" parent="5YISY8baD741QjHtO7cg-2" vertex="1" connectable="0">
                    <mxGeometry width="30" height="26" as="geometry"/>
                </mxCell>
                <mxCell id="5YISY8baD741QjHtO7cg-0" value="idPetÂ  : int" style="shape=partialRectangle;top=0;left=0;right=0;bottom=0;align=left;verticalAlign=top;fillColor=none;spacingLeft=34;spacingRight=4;overflow=hidden;rotatable=0;points=[[0,0.5],[1,0.5]];portConstraint=eastwest;dropTarget=0;fontSize=12;" parent="OaZPITAqJCspsxSk9iSa-0" vertex="1">
                    <mxGeometry y="82" width="160" height="26" as="geometry"/>
                </mxCell>
                <mxCell id="5YISY8baD741QjHtO7cg-1" value="FK" style="shape=partialRectangle;top=0;left=0;bottom=0;fillColor=none;align=left;verticalAlign=top;spacingLeft=4;spacingRight=4;overflow=hidden;rotatable=0;points=[];portConstraint=eastwest;part=1;fontSize=12;" parent="5YISY8baD741QjHtO7cg-0" vertex="1" connectable="0">
                    <mxGeometry width="30" height="26" as="geometry"/>
                </mxCell>
                <mxCell id="JBs_P9ni_e0yGiG3bXr2-0" value="" style="edgeStyle=entityRelationEdgeStyle;fontSize=12;html=1;endArrow=ERmandOne;startArrow=ERmandOne;entryX=0;entryY=0.5;entryDx=0;entryDy=0;exitX=1;exitY=0.5;exitDx=0;exitDy=0;" parent="iKxvsS5sN6qhoklYNSQN-1" source="iKxvsS5sN6qhoklYNSQN-15" target="5YISY8baD741QjHtO7cg-0" edge="1">
                    <mxGeometry width="100" height="100" relative="1" as="geometry">
                        <mxPoint x="-60" y="770" as="sourcePoint"/>
                        <mxPoint x="40" y="670" as="targetPoint"/>
                    </mxGeometry>
                </mxCell>
                <mxCell id="lHvKRgHmORlm6xC3qnpX-0" value="Veterinario" style="swimlane;fontStyle=0;childLayout=stackLayout;horizontal=1;startSize=26;fillColor=#e0e0e0;horizontalStack=0;resizeParent=1;resizeParentMax=0;resizeLast=0;collapsible=1;marginBottom=0;swimlaneFillColor=#ffffff;align=center;fontSize=14;" parent="iKxvsS5sN6qhoklYNSQN-1" vertex="1">
                    <mxGeometry x="420" y="134" width="160" height="108" as="geometry"/>
                </mxCell>
                <mxCell id="lHvKRgHmORlm6xC3qnpX-1" value="idVeterinario : int" style="shape=partialRectangle;top=0;left=0;right=0;bottom=1;align=left;verticalAlign=middle;fillColor=none;spacingLeft=34;spacingRight=4;overflow=hidden;rotatable=0;points=[[0,0.5],[1,0.5]];portConstraint=eastwest;dropTarget=0;fontStyle=5;fontSize=12;" parent="lHvKRgHmORlm6xC3qnpX-0" vertex="1">
                    <mxGeometry y="26" width="160" height="30" as="geometry"/>
                </mxCell>
                <mxCell id="lHvKRgHmORlm6xC3qnpX-2" value="PK" style="shape=partialRectangle;top=0;left=0;bottom=0;fillColor=none;align=left;verticalAlign=middle;spacingLeft=4;spacingRight=4;overflow=hidden;rotatable=0;points=[];portConstraint=eastwest;part=1;fontSize=12;" parent="lHvKRgHmORlm6xC3qnpX-1" vertex="1" connectable="0">
                    <mxGeometry width="30" height="30" as="geometry"/>
                </mxCell>
                <mxCell id="lHvKRgHmORlm6xC3qnpX-3" value="nome : str" style="shape=partialRectangle;top=0;left=0;right=0;bottom=0;align=left;verticalAlign=top;fillColor=none;spacingLeft=34;spacingRight=4;overflow=hidden;rotatable=0;points=[[0,0.5],[1,0.5]];portConstraint=eastwest;dropTarget=0;fontSize=12;" parent="lHvKRgHmORlm6xC3qnpX-0" vertex="1">
                    <mxGeometry y="56" width="160" height="26" as="geometry"/>
                </mxCell>
                <mxCell id="lHvKRgHmORlm6xC3qnpX-4" value="" style="shape=partialRectangle;top=0;left=0;bottom=0;fillColor=none;align=left;verticalAlign=top;spacingLeft=4;spacingRight=4;overflow=hidden;rotatable=0;points=[];portConstraint=eastwest;part=1;fontSize=12;" parent="lHvKRgHmORlm6xC3qnpX-3" vertex="1" connectable="0">
                    <mxGeometry width="30" height="26" as="geometry"/>
                </mxCell>
                <mxCell id="lHvKRgHmORlm6xC3qnpX-5" value="idClinica : int" style="shape=partialRectangle;top=0;left=0;right=0;bottom=0;align=left;verticalAlign=top;fillColor=none;spacingLeft=34;spacingRight=4;overflow=hidden;rotatable=0;points=[[0,0.5],[1,0.5]];portConstraint=eastwest;dropTarget=0;fontSize=12;" parent="lHvKRgHmORlm6xC3qnpX-0" vertex="1">
                    <mxGeometry y="82" width="160" height="26" as="geometry"/>
                </mxCell>
                <mxCell id="lHvKRgHmORlm6xC3qnpX-6" value="FK" style="shape=partialRectangle;top=0;left=0;bottom=0;fillColor=none;align=left;verticalAlign=top;spacingLeft=4;spacingRight=4;overflow=hidden;rotatable=0;points=[];portConstraint=eastwest;part=1;fontSize=12;" parent="lHvKRgHmORlm6xC3qnpX-5" vertex="1" connectable="0">
                    <mxGeometry width="30" height="26" as="geometry"/>
                </mxCell>
                <mxCell id="w4Urjy8a3ov6bK5Py_ng-0" value="" style="edgeStyle=entityRelationEdgeStyle;fontSize=12;html=1;endArrow=ERoneToMany;entryX=0;entryY=0.5;entryDx=0;entryDy=0;exitX=1;exitY=0.5;exitDx=0;exitDy=0;" parent="iKxvsS5sN6qhoklYNSQN-1" source="ko7Lu__XpXwXb14svriU-1" target="iKxvsS5sN6qhoklYNSQN-19" edge="1">
                    <mxGeometry width="100" height="100" relative="1" as="geometry">
                        <mxPoint x="270" y="480" as="sourcePoint"/>
                        <mxPoint x="240" y="410" as="targetPoint"/>
                    </mxGeometry>
                </mxCell>
                <mxCell id="q4XvpSd-Si8JhOLiRfZd-0" value="" style="edgeStyle=entityRelationEdgeStyle;fontSize=12;html=1;endArrow=ERoneToMany;entryX=0;entryY=0.5;entryDx=0;entryDy=0;exitX=1;exitY=0.5;exitDx=0;exitDy=0;" parent="iKxvsS5sN6qhoklYNSQN-1" source="iKxvsS5sN6qhoklYNSQN-4" target="lHvKRgHmORlm6xC3qnpX-5" edge="1">
                    <mxGeometry width="100" height="100" relative="1" as="geometry">
                        <mxPoint x="-10" y="760" as="sourcePoint"/>
                        <mxPoint x="380" y="650" as="targetPoint"/>
                    </mxGeometry>
                </mxCell>
                <mxCell id="U5sERDFufAHykvwQDKho-0" value="" style="edgeStyle=entityRelationEdgeStyle;fontSize=12;html=1;endArrow=ERoneToMany;entryX=0;entryY=0.5;entryDx=0;entryDy=0;exitX=1;exitY=0.5;exitDx=0;exitDy=0;" parent="iKxvsS5sN6qhoklYNSQN-1" source="lHvKRgHmORlm6xC3qnpX-1" target="5YISY8baD741QjHtO7cg-2" edge="1">
                    <mxGeometry width="100" height="100" relative="1" as="geometry">
                        <mxPoint x="-20" y="760" as="sourcePoint"/>
                        <mxPoint x="80" y="660" as="targetPoint"/>
                    </mxGeometry>
                </mxCell>
            </root>
        </mxGraphModel>
    </diagram>
</mxfile>